<mxfile host="app.diagrams.net" agent="Mozilla/5.0 (Windows NT 10.0; Win64; x64) AppleWebKit/537.36 (KHTML, like Gecko) Chrome/131.0.0.0 Safari/537.36" version="25.0.3">
  <diagram name="Page-1" id="y5SY14vPfTgrqFBO072k">
    <mxGraphModel dx="1434" dy="746" grid="1" gridSize="10" guides="1" tooltips="1" connect="1" arrows="1" fold="1" page="1" pageScale="1" pageWidth="827" pageHeight="1169" math="0" shadow="0">
      <root>
        <mxCell id="0" />
        <mxCell id="1" parent="0" />
        <mxCell id="a6fkmHo5CkgOSBxt7EsU-4" style="edgeStyle=orthogonalEdgeStyle;rounded=0;orthogonalLoop=1;jettySize=auto;html=1;exitX=0.5;exitY=1;exitDx=0;exitDy=0;" edge="1" parent="1" source="a6fkmHo5CkgOSBxt7EsU-2">
          <mxGeometry relative="1" as="geometry">
            <mxPoint x="340" y="140" as="targetPoint" />
          </mxGeometry>
        </mxCell>
        <mxCell id="a6fkmHo5CkgOSBxt7EsU-2" value="Caricamento input manuale" style="rounded=0;whiteSpace=wrap;html=1;fillColor=#dae8fc;strokeColor=#6c8ebf;" vertex="1" parent="1">
          <mxGeometry x="240" y="40" width="200" height="60" as="geometry" />
        </mxCell>
        <mxCell id="a6fkmHo5CkgOSBxt7EsU-8" style="edgeStyle=orthogonalEdgeStyle;rounded=0;orthogonalLoop=1;jettySize=auto;html=1;exitX=0.5;exitY=1;exitDx=0;exitDy=0;entryX=0.5;entryY=0;entryDx=0;entryDy=0;" edge="1" parent="1" source="a6fkmHo5CkgOSBxt7EsU-6" target="a6fkmHo5CkgOSBxt7EsU-7">
          <mxGeometry relative="1" as="geometry" />
        </mxCell>
        <mxCell id="a6fkmHo5CkgOSBxt7EsU-6" value="Scrittura su&amp;nbsp;&lt;span style=&quot;background-color: initial;&quot;&gt;Repository&lt;/span&gt;" style="shape=parallelogram;perimeter=parallelogramPerimeter;whiteSpace=wrap;html=1;fixedSize=1;fillColor=#dae8fc;strokeColor=#6c8ebf;" vertex="1" parent="1">
          <mxGeometry x="240" y="140" width="200" height="60" as="geometry" />
        </mxCell>
        <mxCell id="a6fkmHo5CkgOSBxt7EsU-10" style="edgeStyle=orthogonalEdgeStyle;rounded=0;orthogonalLoop=1;jettySize=auto;html=1;exitX=0.5;exitY=1;exitDx=0;exitDy=0;entryX=0.5;entryY=0;entryDx=0;entryDy=0;" edge="1" parent="1" source="a6fkmHo5CkgOSBxt7EsU-7" target="a6fkmHo5CkgOSBxt7EsU-9">
          <mxGeometry relative="1" as="geometry" />
        </mxCell>
        <mxCell id="a6fkmHo5CkgOSBxt7EsU-7" value="Avvio processamento dati" style="rounded=0;whiteSpace=wrap;html=1;fillColor=#dae8fc;strokeColor=#6c8ebf;" vertex="1" parent="1">
          <mxGeometry x="240" y="240" width="200" height="60" as="geometry" />
        </mxCell>
        <mxCell id="a6fkmHo5CkgOSBxt7EsU-14" style="edgeStyle=orthogonalEdgeStyle;rounded=0;orthogonalLoop=1;jettySize=auto;html=1;exitX=0.5;exitY=1;exitDx=0;exitDy=0;entryX=0.5;entryY=0;entryDx=0;entryDy=0;" edge="1" parent="1" source="a6fkmHo5CkgOSBxt7EsU-9" target="a6fkmHo5CkgOSBxt7EsU-12">
          <mxGeometry relative="1" as="geometry" />
        </mxCell>
        <mxCell id="a6fkmHo5CkgOSBxt7EsU-9" value="Caricamento anagrafica&lt;div&gt;fornitori e istanze&lt;/div&gt;" style="shape=parallelogram;perimeter=parallelogramPerimeter;whiteSpace=wrap;html=1;fixedSize=1;fillColor=#dae8fc;strokeColor=#6c8ebf;" vertex="1" parent="1">
          <mxGeometry x="240" y="340" width="200" height="60" as="geometry" />
        </mxCell>
        <mxCell id="a6fkmHo5CkgOSBxt7EsU-16" style="edgeStyle=orthogonalEdgeStyle;rounded=0;orthogonalLoop=1;jettySize=auto;html=1;exitX=0.5;exitY=1;exitDx=0;exitDy=0;entryX=0.5;entryY=0;entryDx=0;entryDy=0;" edge="1" parent="1" source="a6fkmHo5CkgOSBxt7EsU-12" target="a6fkmHo5CkgOSBxt7EsU-15">
          <mxGeometry relative="1" as="geometry" />
        </mxCell>
        <mxCell id="a6fkmHo5CkgOSBxt7EsU-12" value="Avvio fase di Ricevibilità" style="rounded=0;whiteSpace=wrap;html=1;fillColor=#dae8fc;strokeColor=#6c8ebf;" vertex="1" parent="1">
          <mxGeometry x="240" y="440" width="200" height="60" as="geometry" />
        </mxCell>
        <mxCell id="a6fkmHo5CkgOSBxt7EsU-25" style="edgeStyle=orthogonalEdgeStyle;rounded=0;orthogonalLoop=1;jettySize=auto;html=1;exitX=0.5;exitY=1;exitDx=0;exitDy=0;entryX=0.5;entryY=0;entryDx=0;entryDy=0;" edge="1" parent="1" source="a6fkmHo5CkgOSBxt7EsU-13" target="a6fkmHo5CkgOSBxt7EsU-22">
          <mxGeometry relative="1" as="geometry" />
        </mxCell>
        <mxCell id="a6fkmHo5CkgOSBxt7EsU-13" value="Avvio fase di Ammissibilità" style="rounded=0;whiteSpace=wrap;html=1;fillColor=#dae8fc;strokeColor=#6c8ebf;" vertex="1" parent="1">
          <mxGeometry x="240" y="660" width="200" height="60" as="geometry" />
        </mxCell>
        <mxCell id="a6fkmHo5CkgOSBxt7EsU-17" style="edgeStyle=orthogonalEdgeStyle;rounded=0;orthogonalLoop=1;jettySize=auto;html=1;exitX=0.5;exitY=1;exitDx=0;exitDy=0;entryX=0.5;entryY=0;entryDx=0;entryDy=0;" edge="1" parent="1" source="a6fkmHo5CkgOSBxt7EsU-15" target="a6fkmHo5CkgOSBxt7EsU-13">
          <mxGeometry relative="1" as="geometry" />
        </mxCell>
        <mxCell id="a6fkmHo5CkgOSBxt7EsU-21" value="Sì" style="edgeLabel;html=1;align=center;verticalAlign=middle;resizable=0;points=[];" vertex="1" connectable="0" parent="a6fkmHo5CkgOSBxt7EsU-17">
          <mxGeometry x="-0.35" y="-1" relative="1" as="geometry">
            <mxPoint as="offset" />
          </mxGeometry>
        </mxCell>
        <mxCell id="a6fkmHo5CkgOSBxt7EsU-19" style="edgeStyle=orthogonalEdgeStyle;rounded=0;orthogonalLoop=1;jettySize=auto;html=1;exitX=1;exitY=0.5;exitDx=0;exitDy=0;" edge="1" parent="1" source="a6fkmHo5CkgOSBxt7EsU-15" target="a6fkmHo5CkgOSBxt7EsU-18">
          <mxGeometry relative="1" as="geometry" />
        </mxCell>
        <mxCell id="a6fkmHo5CkgOSBxt7EsU-20" value="No" style="edgeLabel;html=1;align=center;verticalAlign=middle;resizable=0;points=[];" vertex="1" connectable="0" parent="a6fkmHo5CkgOSBxt7EsU-19">
          <mxGeometry x="-0.1429" y="1" relative="1" as="geometry">
            <mxPoint as="offset" />
          </mxGeometry>
        </mxCell>
        <mxCell id="a6fkmHo5CkgOSBxt7EsU-15" value="Istanze ricevibili" style="rhombus;whiteSpace=wrap;html=1;fillColor=#dae8fc;strokeColor=#6c8ebf;" vertex="1" parent="1">
          <mxGeometry x="300" y="540" width="80" height="80" as="geometry" />
        </mxCell>
        <mxCell id="a6fkmHo5CkgOSBxt7EsU-18" value="Modifica istanze con&lt;div&gt;dettagli di non ricevibilità&lt;/div&gt;" style="shape=parallelogram;perimeter=parallelogramPerimeter;whiteSpace=wrap;html=1;fixedSize=1;fillColor=#dae8fc;strokeColor=#6c8ebf;" vertex="1" parent="1">
          <mxGeometry x="440" y="550" width="200" height="60" as="geometry" />
        </mxCell>
        <mxCell id="a6fkmHo5CkgOSBxt7EsU-24" style="edgeStyle=orthogonalEdgeStyle;rounded=0;orthogonalLoop=1;jettySize=auto;html=1;exitX=1;exitY=0.5;exitDx=0;exitDy=0;entryX=0;entryY=0.5;entryDx=0;entryDy=0;" edge="1" parent="1" source="a6fkmHo5CkgOSBxt7EsU-22" target="a6fkmHo5CkgOSBxt7EsU-23">
          <mxGeometry relative="1" as="geometry" />
        </mxCell>
        <mxCell id="a6fkmHo5CkgOSBxt7EsU-26" value="No" style="edgeLabel;html=1;align=center;verticalAlign=middle;resizable=0;points=[];" vertex="1" connectable="0" parent="a6fkmHo5CkgOSBxt7EsU-24">
          <mxGeometry x="-0.3429" relative="1" as="geometry">
            <mxPoint as="offset" />
          </mxGeometry>
        </mxCell>
        <mxCell id="a6fkmHo5CkgOSBxt7EsU-28" style="edgeStyle=orthogonalEdgeStyle;rounded=0;orthogonalLoop=1;jettySize=auto;html=1;exitX=0.5;exitY=1;exitDx=0;exitDy=0;entryX=0.5;entryY=0;entryDx=0;entryDy=0;" edge="1" parent="1" source="a6fkmHo5CkgOSBxt7EsU-22" target="a6fkmHo5CkgOSBxt7EsU-27">
          <mxGeometry relative="1" as="geometry" />
        </mxCell>
        <mxCell id="a6fkmHo5CkgOSBxt7EsU-29" value="Sì" style="edgeLabel;html=1;align=center;verticalAlign=middle;resizable=0;points=[];" vertex="1" connectable="0" parent="a6fkmHo5CkgOSBxt7EsU-28">
          <mxGeometry x="-0.25" y="-2" relative="1" as="geometry">
            <mxPoint as="offset" />
          </mxGeometry>
        </mxCell>
        <mxCell id="a6fkmHo5CkgOSBxt7EsU-22" value="Istanze ammissibili" style="rhombus;whiteSpace=wrap;html=1;fillColor=#dae8fc;strokeColor=#6c8ebf;" vertex="1" parent="1">
          <mxGeometry x="300" y="760" width="80" height="80" as="geometry" />
        </mxCell>
        <mxCell id="a6fkmHo5CkgOSBxt7EsU-23" value="Modifica istanze con&lt;div&gt;dettagli di non ammissibilità&lt;/div&gt;" style="shape=parallelogram;perimeter=parallelogramPerimeter;whiteSpace=wrap;html=1;fixedSize=1;fillColor=#dae8fc;strokeColor=#6c8ebf;" vertex="1" parent="1">
          <mxGeometry x="440" y="770" width="200" height="60" as="geometry" />
        </mxCell>
        <mxCell id="a6fkmHo5CkgOSBxt7EsU-31" style="edgeStyle=orthogonalEdgeStyle;rounded=0;orthogonalLoop=1;jettySize=auto;html=1;exitX=0.5;exitY=1;exitDx=0;exitDy=0;entryX=0.5;entryY=0;entryDx=0;entryDy=0;" edge="1" parent="1" source="a6fkmHo5CkgOSBxt7EsU-27" target="a6fkmHo5CkgOSBxt7EsU-30">
          <mxGeometry relative="1" as="geometry" />
        </mxCell>
        <mxCell id="a6fkmHo5CkgOSBxt7EsU-27" value="Generazione CheckList" style="rounded=0;whiteSpace=wrap;html=1;fillColor=#dae8fc;strokeColor=#6c8ebf;" vertex="1" parent="1">
          <mxGeometry x="240" y="880" width="200" height="60" as="geometry" />
        </mxCell>
        <mxCell id="a6fkmHo5CkgOSBxt7EsU-34" style="edgeStyle=orthogonalEdgeStyle;rounded=0;orthogonalLoop=1;jettySize=auto;html=1;exitX=0.5;exitY=1;exitDx=0;exitDy=0;entryX=0.5;entryY=0;entryDx=0;entryDy=0;" edge="1" parent="1" source="a6fkmHo5CkgOSBxt7EsU-30" target="a6fkmHo5CkgOSBxt7EsU-33">
          <mxGeometry relative="1" as="geometry" />
        </mxCell>
        <mxCell id="a6fkmHo5CkgOSBxt7EsU-30" value="Pubblicazione Graduatoria" style="rounded=0;whiteSpace=wrap;html=1;fillColor=#dae8fc;strokeColor=#6c8ebf;" vertex="1" parent="1">
          <mxGeometry x="240" y="980" width="200" height="60" as="geometry" />
        </mxCell>
        <mxCell id="a6fkmHo5CkgOSBxt7EsU-36" style="edgeStyle=orthogonalEdgeStyle;rounded=0;orthogonalLoop=1;jettySize=auto;html=1;exitX=0.5;exitY=1;exitDx=0;exitDy=0;entryX=0.5;entryY=0;entryDx=0;entryDy=0;" edge="1" parent="1" source="a6fkmHo5CkgOSBxt7EsU-33" target="a6fkmHo5CkgOSBxt7EsU-35">
          <mxGeometry relative="1" as="geometry" />
        </mxCell>
        <mxCell id="a6fkmHo5CkgOSBxt7EsU-33" value="Scrittura documenti per&lt;div&gt;liquidazione acconti&lt;/div&gt;" style="shape=parallelogram;perimeter=parallelogramPerimeter;whiteSpace=wrap;html=1;fixedSize=1;fillColor=#dae8fc;strokeColor=#6c8ebf;" vertex="1" parent="1">
          <mxGeometry x="240" y="1080" width="200" height="60" as="geometry" />
        </mxCell>
        <mxCell id="a6fkmHo5CkgOSBxt7EsU-38" style="edgeStyle=orthogonalEdgeStyle;rounded=0;orthogonalLoop=1;jettySize=auto;html=1;exitX=0.5;exitY=1;exitDx=0;exitDy=0;entryX=0.5;entryY=0;entryDx=0;entryDy=0;" edge="1" parent="1" source="a6fkmHo5CkgOSBxt7EsU-35" target="a6fkmHo5CkgOSBxt7EsU-37">
          <mxGeometry relative="1" as="geometry" />
        </mxCell>
        <mxCell id="a6fkmHo5CkgOSBxt7EsU-35" value="Elaborazione (manuale) documenti e compilazione checklist" style="rounded=0;whiteSpace=wrap;html=1;fillColor=#dae8fc;strokeColor=#6c8ebf;" vertex="1" parent="1">
          <mxGeometry x="240" y="1180" width="200" height="60" as="geometry" />
        </mxCell>
        <mxCell id="a6fkmHo5CkgOSBxt7EsU-40" style="edgeStyle=orthogonalEdgeStyle;rounded=0;orthogonalLoop=1;jettySize=auto;html=1;exitX=1;exitY=0.5;exitDx=0;exitDy=0;" edge="1" parent="1" source="a6fkmHo5CkgOSBxt7EsU-37" target="a6fkmHo5CkgOSBxt7EsU-39">
          <mxGeometry relative="1" as="geometry" />
        </mxCell>
        <mxCell id="a6fkmHo5CkgOSBxt7EsU-41" value="No" style="edgeLabel;html=1;align=center;verticalAlign=middle;resizable=0;points=[];" vertex="1" connectable="0" parent="a6fkmHo5CkgOSBxt7EsU-40">
          <mxGeometry x="-0.2571" y="4" relative="1" as="geometry">
            <mxPoint as="offset" />
          </mxGeometry>
        </mxCell>
        <mxCell id="a6fkmHo5CkgOSBxt7EsU-43" style="edgeStyle=orthogonalEdgeStyle;rounded=0;orthogonalLoop=1;jettySize=auto;html=1;exitX=0.5;exitY=1;exitDx=0;exitDy=0;entryX=0.5;entryY=0;entryDx=0;entryDy=0;" edge="1" parent="1" source="a6fkmHo5CkgOSBxt7EsU-37" target="a6fkmHo5CkgOSBxt7EsU-42">
          <mxGeometry relative="1" as="geometry" />
        </mxCell>
        <mxCell id="a6fkmHo5CkgOSBxt7EsU-44" value="Sì" style="edgeLabel;html=1;align=center;verticalAlign=middle;resizable=0;points=[];" vertex="1" connectable="0" parent="a6fkmHo5CkgOSBxt7EsU-43">
          <mxGeometry x="-0.25" y="-1" relative="1" as="geometry">
            <mxPoint as="offset" />
          </mxGeometry>
        </mxCell>
        <mxCell id="a6fkmHo5CkgOSBxt7EsU-37" value="Checklist OK" style="rhombus;whiteSpace=wrap;html=1;fillColor=#dae8fc;strokeColor=#6c8ebf;" vertex="1" parent="1">
          <mxGeometry x="300" y="1280" width="80" height="80" as="geometry" />
        </mxCell>
        <mxCell id="a6fkmHo5CkgOSBxt7EsU-39" value="Modifica istanze con&lt;div&gt;dettagli di KO acconto&lt;/div&gt;" style="shape=parallelogram;perimeter=parallelogramPerimeter;whiteSpace=wrap;html=1;fixedSize=1;fillColor=#dae8fc;strokeColor=#6c8ebf;" vertex="1" parent="1">
          <mxGeometry x="440" y="1290" width="200" height="60" as="geometry" />
        </mxCell>
        <mxCell id="a6fkmHo5CkgOSBxt7EsU-54" style="edgeStyle=orthogonalEdgeStyle;rounded=0;orthogonalLoop=1;jettySize=auto;html=1;exitX=0.5;exitY=1;exitDx=0;exitDy=0;" edge="1" parent="1" source="a6fkmHo5CkgOSBxt7EsU-42" target="a6fkmHo5CkgOSBxt7EsU-46">
          <mxGeometry relative="1" as="geometry" />
        </mxCell>
        <mxCell id="a6fkmHo5CkgOSBxt7EsU-42" value="Generazione Decreti di Liquidazione Acconti" style="rounded=0;whiteSpace=wrap;html=1;fillColor=#dae8fc;strokeColor=#6c8ebf;" vertex="1" parent="1">
          <mxGeometry x="240" y="1400" width="200" height="60" as="geometry" />
        </mxCell>
        <mxCell id="a6fkmHo5CkgOSBxt7EsU-45" style="edgeStyle=orthogonalEdgeStyle;rounded=0;orthogonalLoop=1;jettySize=auto;html=1;exitX=0.5;exitY=1;exitDx=0;exitDy=0;entryX=0.5;entryY=0;entryDx=0;entryDy=0;" edge="1" parent="1" source="a6fkmHo5CkgOSBxt7EsU-46" target="a6fkmHo5CkgOSBxt7EsU-51">
          <mxGeometry relative="1" as="geometry" />
        </mxCell>
        <mxCell id="a6fkmHo5CkgOSBxt7EsU-46" value="Elaborazione (manuale) documenti e compilazione checklist" style="rounded=0;whiteSpace=wrap;html=1;fillColor=#dae8fc;strokeColor=#6c8ebf;" vertex="1" parent="1">
          <mxGeometry x="240" y="1500" width="200" height="60" as="geometry" />
        </mxCell>
        <mxCell id="a6fkmHo5CkgOSBxt7EsU-47" style="edgeStyle=orthogonalEdgeStyle;rounded=0;orthogonalLoop=1;jettySize=auto;html=1;exitX=1;exitY=0.5;exitDx=0;exitDy=0;" edge="1" parent="1" source="a6fkmHo5CkgOSBxt7EsU-51" target="a6fkmHo5CkgOSBxt7EsU-52">
          <mxGeometry relative="1" as="geometry" />
        </mxCell>
        <mxCell id="a6fkmHo5CkgOSBxt7EsU-48" value="No" style="edgeLabel;html=1;align=center;verticalAlign=middle;resizable=0;points=[];" vertex="1" connectable="0" parent="a6fkmHo5CkgOSBxt7EsU-47">
          <mxGeometry x="-0.2571" y="4" relative="1" as="geometry">
            <mxPoint as="offset" />
          </mxGeometry>
        </mxCell>
        <mxCell id="a6fkmHo5CkgOSBxt7EsU-49" style="edgeStyle=orthogonalEdgeStyle;rounded=0;orthogonalLoop=1;jettySize=auto;html=1;exitX=0.5;exitY=1;exitDx=0;exitDy=0;entryX=0.5;entryY=0;entryDx=0;entryDy=0;" edge="1" parent="1" source="a6fkmHo5CkgOSBxt7EsU-51" target="a6fkmHo5CkgOSBxt7EsU-53">
          <mxGeometry relative="1" as="geometry" />
        </mxCell>
        <mxCell id="a6fkmHo5CkgOSBxt7EsU-50" value="Sì" style="edgeLabel;html=1;align=center;verticalAlign=middle;resizable=0;points=[];" vertex="1" connectable="0" parent="a6fkmHo5CkgOSBxt7EsU-49">
          <mxGeometry x="-0.25" y="-1" relative="1" as="geometry">
            <mxPoint as="offset" />
          </mxGeometry>
        </mxCell>
        <mxCell id="a6fkmHo5CkgOSBxt7EsU-51" value="Checklist OK" style="rhombus;whiteSpace=wrap;html=1;fillColor=#dae8fc;strokeColor=#6c8ebf;" vertex="1" parent="1">
          <mxGeometry x="300" y="1600" width="80" height="80" as="geometry" />
        </mxCell>
        <mxCell id="a6fkmHo5CkgOSBxt7EsU-52" value="Modifica istanze con&lt;div&gt;dettagli di KO saldo&lt;/div&gt;" style="shape=parallelogram;perimeter=parallelogramPerimeter;whiteSpace=wrap;html=1;fixedSize=1;fillColor=#dae8fc;strokeColor=#6c8ebf;" vertex="1" parent="1">
          <mxGeometry x="440" y="1610" width="200" height="60" as="geometry" />
        </mxCell>
        <mxCell id="a6fkmHo5CkgOSBxt7EsU-53" value="Generazione Decreti di Liquidazione Saldi e chiusura progetto" style="rounded=0;whiteSpace=wrap;html=1;fillColor=#dae8fc;strokeColor=#6c8ebf;" vertex="1" parent="1">
          <mxGeometry x="240" y="1720" width="200" height="60" as="geometry" />
        </mxCell>
      </root>
    </mxGraphModel>
  </diagram>
</mxfile>
